<?xml version="1.0" standalone="no"?>
<!DOCTYPE svg PUBLIC "-//W3C//DTD SVG 20010904//EN"
 "http://www.w3.org/TR/2001/REC-SVG-20010904/DTD/svg10.dtd">
<svg version="1.0" xmlns="http://www.w3.org/2000/svg"
 width="427.000000pt" height="489.000000pt" viewBox="0 0 427.000000 489.000000"
 preserveAspectRatio="xMidYMid meet">

<g transform="translate(0.000000,489.000000) scale(0.100000,-0.100000)"
fill="#000000" stroke="none">
<path d="M0 2487 l0 -2404 133 -5 c72 -3 169 -3 215 1 l82 6 -20 40 c-11 21
-20 49 -20 61 0 12 -7 35 -15 50 -10 19 -15 58 -15 114 0 66 -4 92 -19 116
-12 20 -21 58 -24 100 -6 82 -18 139 -46 214 -24 65 -26 106 -7 151 12 28 12
39 0 72 -18 52 -18 99 2 145 13 31 16 104 18 467 2 299 7 456 16 516 12 77 12
96 -4 181 -22 113 -18 220 12 354 50 225 119 378 232 511 128 150 166 190 177
186 4 -2 8 -22 10 -45 1 -24 7 -61 13 -83 30 -110 35 -119 78 -149 40 -28 51
-31 146 -34 89 -4 110 -1 151 17 26 12 55 21 65 21 19 0 160 145 160 166 0 7
13 28 28 46 47 55 67 113 66 192 -1 60 -6 83 -36 146 -20 41 -38 83 -41 92 -8
22 -159 94 -227 109 -29 6 -72 20 -96 30 -40 18 -43 22 -31 40 6 11 40 33 74
50 34 16 65 34 68 39 4 6 40 33 80 60 41 27 80 58 87 69 12 17 102 100 172
159 15 13 44 32 64 44 20 11 46 27 57 37 70 58 254 149 365 180 76 21 204 44
339 61 60 8 82 7 120 -6 26 -10 87 -18 143 -20 85 -3 99 -6 122 -27 26 -24 86
-47 124 -47 14 0 26 12 38 40 12 26 29 45 51 55 18 9 33 20 33 24 0 5 16 26
35 47 19 21 35 41 35 45 0 3 13 12 28 18 25 11 126 107 146 139 6 9 -315 12
-1588 12 l-1596 0 0 -2403z m1340 2208 c15 -18 9 -50 -10 -50 -10 0 -16 12
-18 33 -3 34 8 41 28 17z m-713 -193 c29 -18 43 -83 49 -233 l7 -152 -30 6
c-24 5 -33 2 -37 -10 -4 -9 -2 -19 4 -23 13 -8 -52 -36 -140 -61 -86 -24 -93
-23 -129 7 -40 34 -41 84 -3 174 34 78 151 254 192 287 17 14 69 17 87 5z
m226 -543 c33 -59 29 -81 -16 -97 -51 -18 -77 -16 -77 8 0 11 5 20 10 20 6 0
1 13 -11 29 -27 37 -20 60 16 54 14 -3 25 -2 24 3 -9 52 23 42 54 -17z m-96
-456 c-3 -10 -5 -2 -5 17 0 19 2 27 5 18 2 -10 2 -26 0 -35z m233 -20 c74 -32
85 -39 107 -63 12 -14 23 -28 23 -33 0 -4 15 -22 34 -40 38 -35 86 -102 86
-118 0 -10 -40 -2 -50 10 -3 3 -48 6 -100 6 -124 0 -238 34 -281 83 -33 38
-36 61 -11 105 40 74 101 90 192 50z"/>
<path d="M539 4414 c-21 -6 -24 -130 -3 -151 8 -8 14 -33 14 -56 0 -38 1 -40
13 -22 8 11 21 54 30 95 25 110 9 151 -54 134z"/>
<path d="M3540 4883 c-20 -7 -68 -61 -86 -96 -38 -72 -165 -157 -237 -157 -26
0 -37 -5 -42 -19 -7 -24 -44 -71 -55 -71 -14 0 2 41 21 53 23 14 27 77 6 77
-22 0 -78 -31 -84 -46 -3 -8 -11 -14 -18 -14 -23 0 -125 -110 -125 -135 0 -51
48 -44 109 15 44 43 81 53 81 22 0 -27 9 -32 38 -21 40 15 92 3 92 -21 0 -11
-4 -20 -10 -20 -5 0 -10 -8 -10 -18 0 -10 -7 -28 -16 -40 -8 -12 -12 -21 -7
-20 17 4 83 -13 83 -22 0 -16 64 -11 88 6 16 11 22 25 22 55 0 28 4 39 15 39
8 0 15 -9 15 -20 0 -11 7 -20 15 -20 8 0 15 7 15 16 0 9 11 25 24 35 14 11 28
28 31 39 5 15 15 19 46 17 30 -1 43 4 54 20 8 11 27 24 42 28 14 3 52 24 83
46 31 21 60 39 64 39 17 0 139 108 184 163 12 15 22 38 22 52 0 22 -4 25 -40
25 -28 0 -40 -4 -40 -14 0 -23 -29 -46 -57 -46 -18 0 -24 4 -19 15 3 8 9 22
12 30 9 23 -33 19 -45 -4 -11 -19 -53 -33 -69 -22 -4 3 -11 14 -15 24 -7 19
-37 24 -37 5 0 -7 12 -22 26 -33 26 -20 26 -22 11 -51 -9 -17 -23 -36 -31 -43
-9 -8 -16 -18 -16 -23 0 -14 -23 -34 -48 -42 -26 -8 -52 -54 -52 -89 0 -40
-20 -49 -93 -41 -36 4 -70 10 -76 14 -8 5 -1 24 24 61 19 29 35 66 35 81 0 16
5 28 10 28 6 0 15 11 19 23 5 13 35 41 66 61 31 21 54 43 52 49 -4 13 -53 19
-77 10z m-238 -418 c2 -16 -3 -20 -22 -20 -31 0 -42 41 -13 47 22 5 30 -1 35
-27z"/>
<path d="M4223 4883 c9 -2 23 -2 30 0 6 3 -1 5 -18 5 -16 0 -22 -2 -12 -5z"/>
<path d="M3232 4718 c-14 -14 -16 -28 -3 -28 9 0 24 30 18 36 -2 2 -9 -2 -15
-8z"/>
<path d="M3266 4324 c-3 -8 1 -14 9 -14 20 0 28 17 11 23 -8 3 -17 -1 -20 -9z"/>
<path d="M4245 4311 c-23 -9 -36 -58 -22 -82 7 -11 5 -26 -7 -49 -21 -42 -8
-60 29 -40 24 13 25 18 25 97 0 46 -1 83 -2 82 -2 0 -12 -4 -23 -8z"/>
<path d="M3784 4267 c-37 -21 -7 -64 30 -45 27 14 35 28 29 45 -6 16 -31 16
-59 0z"/>
<path d="M3337 4254 c-3 -4 -32 -7 -63 -8 -42 -1 -60 -6 -68 -18 -17 -28 1
-33 58 -15 29 9 64 17 77 17 17 0 20 3 10 9 -11 7 -11 9 0 14 8 3 9 6 3 6 -6
1 -13 -2 -17 -5z"/>
<path d="M3728 4203 c6 -2 18 -2 25 0 6 3 1 5 -13 5 -14 0 -19 -2 -12 -5z"/>
<path d="M3560 4094 l-25 -14 28 0 c17 0 27 5 27 15 0 8 -1 15 -2 14 -2 -1
-14 -7 -28 -15z"/>
<path d="M4097 4050 c-14 -11 -32 -20 -41 -20 -9 0 -16 -4 -16 -9 0 -4 -11
-20 -25 -35 -21 -23 -24 -34 -19 -62 8 -41 -16 -74 -53 -74 -13 0 -26 -7 -29
-15 -9 -22 -23 -18 -34 9 -14 38 -45 42 -90 12 -22 -14 -51 -26 -64 -26 -42 0
-59 -27 -53 -81 5 -36 2 -51 -10 -61 -9 -7 -19 -12 -22 -11 -18 8 -40 -13 -65
-64 -27 -52 -30 -55 -43 -37 -8 10 -16 30 -20 44 -3 14 -11 44 -19 68 -8 23
-14 56 -14 72 0 18 -11 42 -29 62 -15 18 -35 47 -44 63 -8 17 -26 41 -39 55
-12 13 -28 36 -35 50 -10 23 -11 23 -12 4 -1 -12 6 -38 15 -59 8 -20 14 -38
12 -39 -30 -13 -44 -27 -46 -47 -2 -13 -8 -28 -13 -33 -5 -6 -9 -22 -9 -37 0
-15 -4 -31 -10 -34 -5 -3 -10 -15 -10 -26 0 -10 -4 -19 -10 -19 -5 0 -14 -18
-20 -40 -6 -21 -15 -42 -20 -45 -20 -12 -50 -85 -50 -120 0 -49 16 -75 45 -75
26 0 95 -29 95 -41 0 -3 14 -12 30 -19 17 -7 30 -16 30 -21 0 -5 7 -9 15 -9 8
0 21 -13 30 -30 22 -43 45 -52 102 -40 33 8 58 22 80 45 18 19 48 41 68 49 19
8 35 19 35 25 0 5 3 17 7 27 5 14 3 16 -11 11 -23 -9 -68 2 -63 16 2 6 31 10
73 8 56 -2 67 0 57 10 -7 7 -13 23 -13 36 0 18 6 23 25 23 15 0 36 11 49 25
22 23 124 187 154 246 9 17 27 29 58 37 92 25 131 14 207 -57 l37 -35 0 142
c0 142 0 142 -23 142 -13 0 -28 -5 -34 -11 -7 -7 -17 -3 -32 17 -11 15 -21 33
-21 40 0 20 -34 17 -63 -6z m-497 -655 c0 -26 -4 -33 -15 -29 -30 12 -30 64 1
64 9 0 14 -11 14 -35z"/>
<path d="M3693 4053 c-7 -2 -13 -11 -13 -18 0 -8 -6 -18 -14 -22 -10 -6 -12
-18 -6 -48 8 -39 8 -39 9 -7 1 23 10 41 31 61 35 31 30 50 -7 34z"/>
<path d="M3698 3943 c-31 -8 -19 -24 15 -21 17 2 31 8 30 13 -2 12 -21 15 -45
8z"/>
<path d="M4035 3754 c-48 -25 -88 -79 -112 -152 -34 -103 -27 -182 24 -250 18
-24 22 -25 46 -15 15 7 43 38 63 70 21 32 48 74 61 94 13 19 23 43 23 52 0 9
5 17 11 17 7 0 8 14 4 40 -5 32 -4 40 8 40 19 0 32 61 15 72 -7 4 -21 8 -30 8
-10 0 -22 9 -28 20 -13 24 -44 26 -85 4z"/>
<path d="M1885 3604 c-21 -8 -42 -18 -45 -22 -3 -4 -22 -15 -42 -24 -21 -10
-38 -22 -38 -27 0 -5 -9 -13 -21 -16 -12 -4 -18 -12 -15 -21 3 -8 2 -14 -3
-14 -5 0 -14 -14 -21 -30 -10 -24 -10 -59 -1 -171 7 -78 17 -151 23 -164 10
-22 121 -95 145 -95 7 0 24 -24 38 -54 14 -29 35 -65 48 -79 12 -14 29 -36 38
-49 9 -13 34 -32 55 -42 22 -11 53 -26 69 -35 39 -21 297 -23 317 -3 6 6 19
12 28 12 8 0 31 18 50 40 19 22 38 40 43 40 4 0 29 9 54 21 42 19 55 20 145
12 110 -10 236 -2 247 15 10 17 79 43 83 32 2 -5 13 -7 26 -4 26 7 44 59 29
88 -5 10 -6 36 -3 56 6 38 -9 100 -24 100 -5 0 -12 20 -16 45 -3 25 -11 48
-16 51 -6 4 -28 1 -50 -7 -29 -9 -47 -10 -68 -2 -31 12 -110 -3 -132 -25 -20
-20 -31 -13 -97 64 -44 50 -71 74 -86 74 -12 0 -35 10 -51 22 -16 13 -33 26
-39 30 -5 4 -28 22 -50 40 -68 57 -110 86 -149 102 -100 42 -398 67 -471 40z
m175 -255 c0 -15 -5 -20 -22 -17 -34 5 -37 38 -4 38 20 0 26 -5 26 -21z m200
-196 c30 -8 67 -17 81 -20 14 -3 42 -20 62 -38 20 -18 46 -36 57 -40 25 -8 27
-35 3 -36 -16 0 -16 -1 1 -8 24 -9 -40 -23 -192 -42 -91 -12 -106 -11 -130 3
-15 9 -43 19 -62 23 -64 14 -119 43 -134 72 -18 37 -6 59 37 68 17 4 39 13 47
20 8 7 24 15 35 18 31 7 134 -4 195 -20z"/>
<path d="M3775 3357 c-6 -7 -16 -25 -23 -40 -11 -26 -41 -63 -82 -103 -39 -38
-98 -84 -107 -84 -6 0 -28 -16 -49 -35 -21 -19 -40 -35 -43 -35 -4 0 -22 -14
-40 -31 -30 -26 -40 -29 -73 -24 -21 4 -56 4 -77 0 -41 -7 -42 -7 -58 -105 -3
-19 -12 -39 -19 -43 -8 -4 -14 -16 -14 -25 0 -9 -7 -26 -16 -37 -9 -12 -12
-30 -9 -46 4 -17 1 -30 -10 -39 -8 -7 -15 -21 -15 -32 0 -12 -30 -50 -69 -89
-38 -37 -66 -70 -64 -73 3 -3 -4 -11 -16 -18 -12 -7 -21 -21 -21 -31 0 -10 -4
-16 -9 -12 -5 3 -13 -5 -17 -17 -7 -24 -49 -68 -63 -68 -11 0 -21 -25 -21 -51
0 -28 -61 -108 -82 -109 -10 0 -18 -7 -18 -15 0 -9 -7 -18 -15 -21 -8 -4 -15
-16 -15 -29 0 -12 -9 -30 -21 -41 -12 -10 -28 -32 -36 -49 -9 -16 -25 -39 -37
-51 -12 -11 -34 -37 -50 -57 -16 -21 -37 -37 -47 -37 -9 0 -19 -5 -21 -12 -2
-6 -30 -13 -61 -16 -31 -2 -57 -9 -57 -14 0 -14 -30 -42 -48 -44 -24 -4 -33
-26 -26 -65 3 -21 1 -40 -4 -43 -15 -9 -1 -137 19 -178 11 -21 19 -48 19 -62
0 -32 32 -50 76 -42 34 7 74 -9 74 -30 0 -22 -37 -43 -100 -55 -36 -6 -72 -17
-80 -24 -8 -7 -23 -15 -33 -18 -26 -9 -10 -30 17 -23 22 5 23 3 23 -54 0 -43
-4 -61 -15 -65 -20 -7 -20 -6 -23 47 -2 33 -6 45 -16 41 -8 -3 -13 3 -13 16 0
12 -4 21 -9 21 -5 0 -12 11 -15 24 -3 13 -21 34 -40 45 -18 11 -41 32 -51 45
-10 14 -36 32 -57 42 -21 9 -38 23 -38 31 0 9 -13 13 -39 13 -31 0 -41 5 -46
20 -3 10 -19 30 -35 44 -25 20 -29 30 -24 55 5 23 2 32 -10 37 -9 3 -20 23
-26 45 -6 21 -17 45 -25 53 -8 8 -15 19 -15 24 0 22 -48 50 -95 56 -112 15
-179 17 -199 8 -41 -20 -184 -33 -381 -35 l-200 -2 -75 44 c-41 24 -79 49 -85
55 -5 7 -36 31 -68 55 -31 24 -57 46 -57 50 0 3 -15 16 -34 29 -51 35 -83 27
-111 -26 -13 -24 -30 -51 -39 -61 -9 -10 -16 -27 -16 -39 0 -17 6 -22 28 -22
57 0 140 -28 194 -64 32 -20 105 -91 165 -158 157 -175 212 -195 398 -142 125
36 219 53 295 53 64 1 218 -25 314 -52 48 -13 126 -68 126 -88 0 -16 33 -47
63 -58 24 -9 27 -15 27 -58 -1 -40 -6 -53 -31 -78 -30 -30 -31 -30 -137 -29
-59 1 -128 5 -153 9 -48 7 -236 -17 -270 -35 -10 -6 -39 -10 -64 -10 -56 0
-215 -47 -222 -66 -3 -8 -15 -11 -32 -8 -15 3 -45 -1 -65 -10 -42 -17 -76 -21
-76 -8 0 11 -45 32 -66 32 -8 0 -47 27 -86 60 -40 33 -78 60 -85 60 -13 0 -53
19 -63 30 -3 3 -21 17 -40 30 -19 13 -41 32 -48 42 -7 10 -21 18 -30 18 -9 0
-24 13 -33 28 -9 16 -31 36 -50 44 -19 9 -42 30 -52 47 -20 33 -47 40 -67 16
-10 -13 -15 -12 -31 8 -15 18 -20 19 -28 8 -12 -18 -2 -82 15 -101 12 -12 14
-12 14 3 0 22 20 22 21 0 0 -10 2 -43 4 -73 4 -94 15 -161 31 -199 15 -33 17
-34 25 -16 6 14 7 8 2 -19 -5 -37 -5 -38 16 -26 35 18 63 21 101 8 19 -6 45
-11 58 -10 12 1 39 -9 60 -22 61 -38 132 -66 171 -66 20 -1 47 -7 61 -15 14
-8 33 -14 42 -15 10 0 49 -15 88 -34 39 -19 98 -44 133 -56 34 -12 72 -28 84
-36 12 -8 38 -14 56 -14 19 0 45 -8 58 -18 13 -10 53 -31 89 -46 90 -38 118
-60 104 -83 -6 -10 -22 -18 -35 -19 -63 -2 -78 -5 -99 -24 -13 -11 -30 -18
-39 -16 -9 3 -85 8 -169 11 -84 4 -155 11 -158 16 -3 5 -15 9 -27 9 -12 0 -60
14 -107 31 -47 17 -114 37 -148 44 -42 8 -82 25 -116 49 -29 20 -60 36 -69 36
-9 0 -17 5 -17 10 0 6 -16 26 -35 46 -19 19 -35 43 -35 54 0 10 -4 22 -10 25
-32 20 17 -125 89 -265 27 -53 65 -147 85 -210 45 -148 56 -179 82 -215 12
-17 25 -41 29 -55 4 -14 17 -37 29 -51 11 -15 26 -35 32 -45 11 -18 54 -19
1610 -17 879 1 1641 2 1692 2 l92 1 0 1591 c0 1512 -1 1591 -17 1583 -10 -5
-62 -9 -115 -9 -93 0 -98 1 -142 33 -26 17 -50 32 -55 32 -4 0 -33 14 -64 30
-61 32 -86 36 -102 17z"/>
<path d="M745 2675 c-43 -42 -44 -63 -6 -76 19 -7 33 -21 39 -39 6 -16 36 -56
66 -89 31 -34 56 -66 56 -72 0 -19 162 -180 205 -202 35 -19 54 -22 155 -20
112 2 146 6 355 37 55 9 122 16 149 16 55 0 140 35 170 71 26 31 19 207 -10
259 -37 64 -95 75 -119 22 -7 -16 -22 -23 -62 -28 -62 -7 -105 6 -123 41 -15
27 -87 49 -131 40 -15 -4 -42 -22 -58 -41 -17 -19 -53 -43 -83 -54 -63 -25
-211 -39 -222 -21 -4 6 -24 11 -45 11 -70 0 -132 35 -232 133 -26 26 -53 47
-59 47 -6 0 -26 -16 -45 -35z"/>
</g>
</svg>
